<?xml version="1.0" encoding="UTF-8"?>
<svg width="250px" height="250px" viewBox="0 0 250 250" version="1.1" xmlns="http://www.w3.org/2000/svg" xmlns:xlink="http://www.w3.org/1999/xlink" style="background: #F7F7FF;">
    <!-- Generator: Sketch 43.2 (39069) - http://www.bohemiancoding.com/sketch -->
    <title>Artboard</title>
    <desc>Created with Sketch.</desc>
    <defs></defs>
    <g id="Page-2" stroke="none" stroke-width="1" fill="none" fill-rule="evenodd">
        <g id="Artboard">
            <rect id="Rectangle" fill-opacity="0.226590806" fill="#072E08" x="0" y="159" width="250" height="91"></rect>
            <g id="redpanda-final" transform="translate(-4.000000, 74.000000)">
                <g id="z">
                    <path d="M85.8970735,94.4938546 C89.3036158,94.1431616 88.7202776,91.7470744 89.6984169,79.7324977 C90.6765562,67.7179209 85.2695525,57.2327275 85.2695525,57.2327275 C85.2695525,57.2327275 80.1172152,63.8094487 81.2175276,80.0203778 C82.1099113,93.167889 82.9563732,94.7965906 85.8970735,94.4938546 Z" id="Oval-5" stroke="#072E08" fill="#547822" transform="translate(85.440086, 75.879269) rotate(18.000000) translate(-85.440086, -75.879269) "></path>
                    <path d="M101.531987,120.468137 C104.938529,120.045742 106.673399,118.81547 106.895143,104.398188 C107.116887,89.9809067 100.904466,75.5886972 100.904466,75.5886972 C100.904466,75.5886972 95.7521286,83.5100776 96.852441,103.035451 C97.7448247,118.871068 98.5912866,120.83277 101.531987,120.468137 Z" id="Oval-5" stroke="#072E08" fill="#547822" transform="translate(101.799636, 98.047662) rotate(100.000000) translate(-101.799636, -98.047662) "></path>
                    <path d="M98.8392855,103.103552 C102.263752,102.751013 104.016368,99.8588149 104.62234,92.8028883 C104.898933,89.5822531 104.801612,87.9994207 104.652374,81.050444 C104.251262,62.3733333 97.9205274,48.5492594 97.9205274,48.5492594 C97.9205274,48.5492594 91.9944361,56.7722208 93.6054116,80.5067623 C94.9119572,99.7561309 94.5337843,103.54679 98.8392855,103.103552 Z" id="Oval-5" stroke="#072E08" fill="#547822" transform="translate(99.062908, 75.843075) rotate(45.000000) translate(-99.062908, -75.843075) "></path>
                    <path d="M80.059877,95.0896031 L117.452002,55.6969957" id="Path-3" stroke="#072E08"></path>
                    <path d="M85.4790255,95.4526686 L123.774342,100.898651" id="Path-11" stroke="#072E08"></path>
                    <path d="M91.0788122,58.2384542 L80.9630684,88.0098257" id="Path-12" stroke="#072E08"></path>
                    <g id="bamboo" transform="translate(0.000000, 39.673469)" stroke="#072E08">
                        <g transform="translate(126.499149, 0.048492)">
                            <g>
                                <path d="M23.8710654,50.024139 C27.3304798,49.6766231 29.1009813,46.8256268 29.7131382,39.8702193 C29.9925535,36.6954653 29.8942389,35.135182 29.7434785,28.2852007 C29.3382723,9.87416485 22.9429311,-3.75297079 22.9429311,-3.75297079 C22.9429311,-3.75297079 16.9563622,4.35284599 18.5837782,27.7492643 C19.9036575,46.7244057 19.5216253,50.4610626 23.8710654,50.024139 Z" id="Oval-5" fill="#547822" transform="translate(24.096970, 23.152016) rotate(45.000000) translate(-24.096970, -23.152016) "></path>
                                <path d="M4.5620438,42.7980132 L42.3357664,3.2781457" id="Path-3"></path>
                                <path d="M10.4588107,42.2003402 C13.9001178,41.8485143 13.3108265,39.4446863 14.298948,27.3912958 C15.2870694,15.3379053 9.82488569,4.81883883 9.82488569,4.81883883 C9.82488569,4.81883883 4.61996722,11.4168065 5.73150861,27.680106 C6.63299938,40.870091 7.48809961,42.5040541 10.4588107,42.2003402 Z" id="Oval-5" fill="#547822" transform="translate(9.997159, 23.525619) rotate(18.000000) translate(-9.997159, -23.525619) "></path>
                                <path d="M26.2532831,68.258534 C29.6945903,67.8347747 31.4471646,66.6005282 31.6711716,52.1366705 C31.8951787,37.6728129 25.6193581,23.2341085 25.6193581,23.2341085 C25.6193581,23.2341085 20.4144397,31.1810794 21.5259811,50.7695306 C22.4274718,66.6563055 23.2825721,68.6243445 26.2532831,68.258534 Z" id="Oval-5" fill="#547822" transform="translate(26.523663, 45.765628) rotate(100.000000) translate(-26.523663, -45.765628) "></path>
                                <path d="M4.19708029,41.705298 L48.7226277,48.6258278" id="Path-11"></path>
                                <path d="M15.6934307,5.82781457 L4.19708029,41.3410596" id="Path-12"></path>
                            </g>
                        </g>
                        <g transform="translate(126.634707, 54.769090) rotate(70.000000) translate(-126.634707, -54.769090) translate(101.884281, 27.443440)">
                            <g>
                                <path d="M23.8710654,50.024139 C27.3304798,49.6766231 29.1009813,46.8256268 29.7131382,39.8702193 C29.9925535,36.6954653 29.8942389,35.135182 29.7434785,28.2852007 C29.3382723,9.87416485 22.9429311,-3.75297079 22.9429311,-3.75297079 C22.9429311,-3.75297079 16.9563622,4.35284599 18.5837782,27.7492643 C19.9036575,46.7244057 19.5216253,50.4610626 23.8710654,50.024139 Z" id="Oval-5" fill="#547822" transform="translate(24.096970, 23.152016) rotate(45.000000) translate(-24.096970, -23.152016) "></path>
                                <path d="M4.5620438,42.7980132 L42.3357664,3.2781457" id="Path-3"></path>
                                <path d="M10.4588107,42.2003402 C13.9001178,41.8485143 13.3108265,39.4446863 14.298948,27.3912958 C15.2870694,15.3379053 9.82488569,4.81883883 9.82488569,4.81883883 C9.82488569,4.81883883 4.61996722,11.4168065 5.73150861,27.680106 C6.63299938,40.870091 7.48809961,42.5040541 10.4588107,42.2003402 Z" id="Oval-5" fill="#547822" transform="translate(9.997159, 23.525619) rotate(18.000000) translate(-9.997159, -23.525619) "></path>
                                <path d="M26.2532831,68.258534 C29.6945903,67.8347747 31.4471646,66.6005282 31.6711716,52.1366705 C31.8951787,37.6728129 25.6193581,23.2341085 25.6193581,23.2341085 C25.6193581,23.2341085 20.4144397,31.1810794 21.5259811,50.7695306 C22.4274718,66.6563055 23.2825721,68.6243445 26.2532831,68.258534 Z" id="Oval-5" fill="#547822" transform="translate(26.523663, 45.765628) rotate(100.000000) translate(-26.523663, -45.765628) "></path>
                                <path d="M4.19708029,41.705298 L48.7226277,48.6258278" id="Path-11"></path>
                                <path d="M15.6934307,5.82781457 L4.19708029,41.3410596" id="Path-12"></path>
                            </g>
                        </g>
                        <g transform="translate(114.575587, 44.927706)">
                            <g transform="translate(27.831031, 29.361005) scale(1, -1) rotate(20.000000) translate(-27.831031, -29.361005) translate(6.695547, 5.870264)">
                                <path d="M20.2509361,42.8070196 C23.1736364,42.5096408 24.6694517,40.0699655 25.186635,34.1180337 C25.4227001,31.4013102 25.3396386,30.0661332 25.2122681,24.2044174 C24.869928,8.44959208 19.4667981,-3.21151943 19.4667981,-3.21151943 C19.4667981,-3.21151943 14.4090211,3.724849 15.7839501,23.745802 C16.8990554,39.9833479 16.576294,43.1809071 20.2509361,42.8070196 Z" id="Oval-5" fill="#547822" transform="translate(20.441793, 19.811811) rotate(45.000000) translate(-20.441793, -19.811811) "></path>
                                <path d="M3.9376309,36.6234268 L35.8509136,2.80519865" id="Path-3"></path>
                                <path d="M8.91953832,36.1119816 C11.8269406,35.8109146 11.3290754,33.7538935 12.1638939,23.4394786 C12.9987123,13.1250637 8.38396421,4.12361177 8.38396421,4.12361177 C8.38396421,4.12361177 3.98656774,9.76967258 4.92565799,23.6866214 C5.68728612,34.9736512 6.40972102,36.371878 8.91953832,36.1119816 Z" id="Oval-5" fill="#547822" transform="translate(8.529510, 20.131514) rotate(18.000000) translate(-8.529510, -20.131514) "></path>
                                <path d="M22.2635624,58.4106886 C25.1709647,58.0480662 26.6516342,56.9918878 26.8408875,44.6147705 C27.0301407,32.2376531 21.7279883,19.8820601 21.7279883,19.8820601 C21.7279883,19.8820601 17.3305918,26.6824998 18.2696821,43.4448716 C19.0313102,57.039618 19.7537451,58.7237226 22.2635624,58.4106886 Z" id="Oval-5" fill="#547822" transform="translate(22.491994, 39.162896) rotate(100.000000) translate(-22.491994, -39.162896) "></path>
                                <path d="M3.62929001,35.6883606 L41.2468793,41.6104466" id="Path-11"></path>
                                <path d="M13.3420282,4.98701982 L3.62929001,35.3766718" id="Path-12"></path>
                            </g>
                        </g>
                        <g id="bamboo-copy" transform="translate(74.059191, 62.457470) scale(-1, -1) rotate(-50.000000) translate(-74.059191, -62.457470) translate(46.056885, 33.141209)">
                            <g transform="translate(27.831031, 29.361005) scale(1, -1) rotate(20.000000) translate(-27.831031, -29.361005) translate(6.695547, 5.870264)">
                                <path d="M20.2509361,42.8070196 C23.1736364,42.5096408 24.6694517,40.0699655 25.186635,34.1180337 C25.4227001,31.4013102 25.3396386,30.0661332 25.2122681,24.2044174 C24.869928,8.44959208 19.4667981,-3.21151943 19.4667981,-3.21151943 C19.4667981,-3.21151943 14.4090211,3.724849 15.7839501,23.745802 C16.8990554,39.9833479 16.576294,43.1809071 20.2509361,42.8070196 Z" id="Oval-5" fill="#547822" transform="translate(20.441793, 19.811811) rotate(45.000000) translate(-20.441793, -19.811811) "></path>
                                <path d="M3.9376309,36.6234268 L35.8509136,2.80519865" id="Path-3"></path>
                                <path d="M8.91953832,36.1119816 C11.8269406,35.8109146 11.3290754,33.7538935 12.1638939,23.4394786 C12.9987123,13.1250637 8.38396421,4.12361177 8.38396421,4.12361177 C8.38396421,4.12361177 3.98656774,9.76967258 4.92565799,23.6866214 C5.68728612,34.9736512 6.40972102,36.371878 8.91953832,36.1119816 Z" id="Oval-5" fill="#547822" transform="translate(8.529510, 20.131514) rotate(18.000000) translate(-8.529510, -20.131514) "></path>
                                <path d="M22.2635624,58.4106886 C25.1709647,58.0480662 26.6516342,56.9918878 26.8408875,44.6147705 C27.0301407,32.2376531 21.7279883,19.8820601 21.7279883,19.8820601 C21.7279883,19.8820601 17.3305918,26.6824998 18.2696821,43.4448716 C19.0313102,57.039618 19.7537451,58.7237226 22.2635624,58.4106886 Z" id="Oval-5" fill="#547822" transform="translate(22.491994, 39.162896) rotate(100.000000) translate(-22.491994, -39.162896) "></path>
                                <path d="M3.62929001,35.6883606 L41.2468793,41.6104466" id="Path-11"></path>
                                <path d="M13.3420282,4.98701982 L3.62929001,35.3766718" id="Path-12"></path>
                            </g>
                        </g>
                        <g id="bamboo-copy" transform="translate(40.423597, 56.300559) scale(-1, 1) rotate(-50.000000) translate(-40.423597, -56.300559) translate(12.421291, 26.984297)">
                            <g transform="translate(27.831031, 29.361005) scale(1, -1) rotate(20.000000) translate(-27.831031, -29.361005) translate(6.695547, 5.870264)">
                                <path d="M20.2509361,42.8070196 C23.1736364,42.5096408 24.6694517,40.0699655 25.186635,34.1180337 C25.4227001,31.4013102 25.3396386,30.0661332 25.2122681,24.2044174 C24.869928,8.44959208 19.4667981,-3.21151943 19.4667981,-3.21151943 C19.4667981,-3.21151943 14.4090211,3.724849 15.7839501,23.745802 C16.8990554,39.9833479 16.576294,43.1809071 20.2509361,42.8070196 Z" id="Oval-5" fill="#547822" transform="translate(20.441793, 19.811811) rotate(45.000000) translate(-20.441793, -19.811811) "></path>
                                <path d="M3.9376309,36.6234268 L35.8509136,2.80519865" id="Path-3"></path>
                                <path d="M8.91953832,36.1119816 C11.8269406,35.8109146 11.3290754,33.7538935 12.1638939,23.4394786 C12.9987123,13.1250637 8.38396421,4.12361177 8.38396421,4.12361177 C8.38396421,4.12361177 3.98656774,9.76967258 4.92565799,23.6866214 C5.68728612,34.9736512 6.40972102,36.371878 8.91953832,36.1119816 Z" id="Oval-5" fill="#547822" transform="translate(8.529510, 20.131514) rotate(18.000000) translate(-8.529510, -20.131514) "></path>
                                <path d="M22.2635624,58.4106886 C25.1709647,58.0480662 26.6516342,56.9918878 26.8408875,44.6147705 C27.0301407,32.2376531 21.7279883,19.8820601 21.7279883,19.8820601 C21.7279883,19.8820601 17.3305918,26.6824998 18.2696821,43.4448716 C19.0313102,57.039618 19.7537451,58.7237226 22.2635624,58.4106886 Z" id="Oval-5" fill="#547822" transform="translate(22.491994, 39.162896) rotate(100.000000) translate(-22.491994, -39.162896) "></path>
                                <path d="M3.62929001,35.6883606 L41.2468793,41.6104466" id="Path-11"></path>
                                <path d="M13.3420282,4.98701982 L3.62929001,35.3766718" id="Path-12"></path>
                            </g>
                        </g>
                    </g>
                    <path d="M14.1368015,22.2857143 L21.2052023,33.7959184 L21.4489403,35.5102041 C21.4489403,35.5102041 22.1801541,36.7346939 23.8863198,36.9795918 C25.5924855,37.2244898 30.2235067,37.7142857 39.4855491,45.7959184 C48.7475915,53.877551 52.4036609,56.8163265 52.4036609,56.8163265 C52.4036609,56.8163265 58.9845857,71.0204082 60.2032755,72.7346939 C61.4219653,74.4489796 60.2032755,79.3469388 60.2032755,79.3469388 C60.2032755,79.3469388 59.2283237,80.8163265 57.522158,80.8163265 C55.8159923,80.8163265 54.3535645,81.5510204 54.1098266,81.7959184 C53.8660886,82.0408163 51.916185,85.4693878 52.4036609,85.9591837 C52.8911368,86.4489796 54.1098266,86.9387755 54.1098266,86.9387755 L69.9527938,86.9387755 C69.9527938,86.9387755 74.827553,83.0204082 76.2899807,77.6326531 C77.7524085,72.244898 80.9210019,61.7142857 80.9210019,61.7142857 L115.288054,59.755102 C115.288054,59.755102 119.530611,65.6901751 122.600193,69.3061224 C125.669774,72.9220698 128.402058,75.0036875 129.424855,76.4081633 C130.447653,77.812639 129.424855,79.5918367 129.424855,79.5918367 C129.424855,79.5918367 125.037572,79.5918367 122.600193,80.0816327 C120.162813,80.5714286 117.481696,83.0204082 116.99422,84.244898 C116.506744,85.4693878 118.700385,86.2040816 118.700385,86.2040816 L119.675337,87.1836735 L139.66185,87.1836735 C139.66185,87.1836735 150.630058,88.1632653 149.898844,81.3061224 C149.16763,74.4489796 147.644817,67.4957087 147.94894,62.6938776 C148.253064,57.8920464 150.873796,55.5918367 151.60501,51.1836735 C152.336224,46.7755102 152.336224,42.8571429 152.336224,42.8571429 C152.336224,42.8571429 168.179191,50.6938776 182.803468,56.8163265 C197.427746,62.9387755 213.758189,66.3673469 217.17052,66.3673469 C220.582852,66.3673469 247.394027,70.7755102 251.78131,56.0816327 C256.168593,41.3877551 240.813102,44.3265306 240.813102,44.3265306 C240.813102,44.3265306 221.070328,47.0204082 213.270713,44.9155275 C205.471098,42.8106468 198.402697,40.6530612 190.359345,35.5102041 C182.315992,30.3673469 158.67341,17.6326531 158.67341,17.6326531 C158.67341,17.6326531 125.525048,-0.734693878 94.5703276,7.34693878 C63.6156069,15.4285714 55.8159923,7.10204082 51.916185,5.63265306 C48.0163776,4.16326531 41.9229287,1.2244898 34.8545279,2.44897959 C27.7861272,3.67346939 23.3988439,7.10204082 19.7427746,10.7755102 C16.0867052,14.4489796 14.1368015,22.2857143 14.1368015,22.2857143 Z" id="Path-6" fill="#DC5C08"></path>
                    <path d="M43.0098586,1.80704075 C41.3512986,-1.43497766 38.8288423,0.551606396 38.0130257,1.16638079 C37.0380739,1.90107467 34.1132184,4.35005426 33.3820045,5.81944202 C32.725908,7.1378801 33.6396674,8.25915229 33.8343318,8.47561408 C33.6304155,7.98894098 33.5225014,7.32979305 33.8795761,6.6122449 C34.61079,5.14285714 37.5356455,2.69387755 38.5105973,1.95918367 C39.2483529,1.40323363 41.3817756,-0.274563978 43.0098586,1.80704075 Z" id="Combined-Shape" fill="#B4B0B0"></path>
                    <path d="M16.3304432,21.7959184 C15.8429672,20.5714286 16.3304432,18.6122449 16.8179191,18.3673469 C17.305395,18.122449 18.7678227,18.3673469 19.4990366,19.5918367 C20.2302505,20.8163265 20.2302505,21.3061224 20.2302505,21.3061224 L17.5491329,22.7755102 C17.5491329,22.7755102 16.8179191,23.0204082 16.3304432,21.7959184 Z" id="sombra" fill-opacity="0.9" fill="#FFFFFF"></path>
                    <path d="M10.7244701,27.1836735 C10.7244701,27.1836735 9.26204239,28.6530612 9.01830443,29.6326531 C8.77456647,30.6122449 11.699422,33.5510204 12.1868979,32.8163265 C12.4323165,32.4464465 12.6172004,30.9567268 12.1868979,29.6326531 C11.7565953,28.3085793 10.7244701,27.1836735 10.7244701,27.1836735 Z" id="nariz" fill="#000000"></path>
                    <path d="M13.1618497,33.5977174 C13.1618497,33.5977174 13.679978,34.6550455 14.4571704,35.1837096 C15.2343628,35.7123737 17.0478118,36.5053698 19.8975173,36.2410378 C22.7472229,35.9767057 21.2052023,33.5977174 21.2052023,33.5977174 C21.2052023,33.5977174 19.6384532,34.1263814 17.4537377,34.1263814 C15.2690222,34.1263814 13.1618497,33.5977174 13.1618497,33.5977174 Z" id="Path-4" fill="#C8C8C8"></path>
                    <path d="M18.5240848,23.2653061 C19.3317613,23.2653061 20.2302505,22.1176429 20.2302505,21.3061224 C20.2302505,20.494602 19.3317613,20.5714286 18.5240848,20.5714286 C17.7164082,20.5714286 17.305395,21.1068469 17.305395,21.9183673 C17.305395,22.7298878 17.7164082,23.2653061 18.5240848,23.2653061 Z" id="Oval-2" fill="#000000"></path>
                    <path d="M152.335862,42.9289616 C152.331651,43.479944 152.278398,47.1241128 151.60501,51.1836735 C150.873796,55.5918367 148.253064,57.8920464 147.94894,62.6938776 C147.644817,67.4957087 149.16763,74.4489796 149.898844,81.3061224 C150.630058,88.1632653 139.66185,87.1836735 139.66185,87.1836735 L119.675337,87.1836735 L118.700385,86.2040816 C118.700385,86.2040816 116.506744,85.4693878 116.99422,84.244898 C117.481696,83.0204082 120.162813,80.5714286 122.600193,80.0816327 C125.037572,79.5918367 129.424855,79.5918367 129.424855,79.5918367 C129.424855,79.5918367 130.447653,77.812639 129.424855,76.4081633 C128.402058,75.0036875 125.669774,72.9220698 122.600193,69.3061224 C119.530611,65.6901751 115.288054,59.755102 115.288054,59.755102 L80.9210019,61.7142857 C80.9210019,61.7142857 77.7524085,72.244898 76.2899807,77.6326531 C74.827553,83.0204082 69.9527938,86.9387755 69.9527938,86.9387755 L54.1098266,86.9387755 C54.1098266,86.9387755 52.8911368,86.4489796 52.4036609,85.9591837 C51.916185,85.4693878 53.8660886,82.0408163 54.1098266,81.7959184 C54.3535645,81.5510204 55.8159923,80.8163265 57.522158,80.8163265 C59.2283237,80.8163265 60.2032755,79.3469388 60.2032755,79.3469388 C60.2032755,79.3469388 61.4219653,74.4489796 60.2032755,72.7346939 C58.9845857,71.0204082 52.4036609,56.8163265 52.4036609,56.8163265 C52.4036609,56.8163265 48.7475915,53.877551 39.4855491,45.7959184 C30.2235067,37.7142857 25.5924855,37.2244898 23.8863198,36.9795918 C22.1801541,36.7346939 21.4489403,35.5102041 21.4489403,35.5102041 L21.2052023,33.7959184 L18.4293526,29.2757168 L17.5491329,25.9591837 C17.5491329,25.9591837 17.305395,24.4897959 18.2803468,24.244898 C19.2552987,24 19.9865125,24.4897959 20.4739884,24 C20.9614644,23.5102041 20.2302505,21.7959184 21.4489403,21.3061224 C22.6676301,20.8163265 24.1300578,21.7959184 24.1300578,22.2857143 C24.1300578,22.7755102 29.004817,26.9387755 29.004817,26.9387755 L35.3420039,31.8367347 C35.3420039,31.8367347 40.7042389,31.8367347 41.9229287,33.0612245 C43.1416185,34.2857143 42.6541426,37.2244898 45.3352601,37.9591837 C48.0163776,38.6938776 51.1849711,38.4489796 52.1599229,41.3877551 C53.1348748,44.3265306 51.916185,51.9183673 57.0346821,54.122449 C62.1531792,56.3265306 67.5154143,50.4489796 67.5154143,50.4489796 C67.5154143,50.4489796 74.3400771,40.1632653 80.9210019,44.8163265 C87.5019268,49.4693878 99.6888247,54.3673469 108.219653,50.9387755 C116.750482,47.5102041 125.768786,50.4489796 125.768786,50.4489796 C125.768786,50.4489796 146.242775,53.877551 151.60501,43.3469388 C152.316758,41.949174 152.285057,42.3909499 152.335862,42.9289616 Z" id="Combined-Shape" fill-opacity="0.8" fill="#C26122"></path>
                    <path d="M33.8795761,6.6122449 C34.61079,5.14285714 37.5356455,2.69387755 38.5105973,1.95918367 C39.4855491,1.2244898 42.8978805,-1.46938776 44.3603083,5.14285714 C45.822736,11.755102 48.5038536,21.5510204 48.5038536,21.5510204 L39.973025,14.2040816 L34.367052,9.30612245 C34.367052,9.30612245 33.1483622,8.08163265 33.8795761,6.6122449 Z" id="Path-9" fill="#DC5C08"></path>
                    <path d="M33.8795761,6.6122449 C34.61079,5.14285714 37.5356455,2.69387755 38.5105973,1.95918367 C39.4855491,1.2244898 42.8978805,-1.46938776 44.3603083,5.14285714 C45.822736,11.755102 48.5038536,21.5510204 48.5038536,21.5510204 L39.973025,14.2040816 L34.367052,9.30612245 C34.367052,9.30612245 33.1483622,8.08163265 33.8795761,6.6122449 Z" id="Path-9" fill-opacity="0.9" fill="#FFFFFF"></path>
                    <path d="M20.9614644,33.7959184 C20.9614644,33.7959184 14.6242775,34.7755102 13.4055877,33.7959184 L12.1868979,32.8163265 L12.1868979,30.3673469 C12.1868979,28.6530612 10.4807322,27.1836735 10.4807322,27.1836735 L14.1368015,22.2857143 C14.1368015,22.2857143 14.9427147,24.2809005 16.5741811,25.7142857 C17.6269731,26.6392551 19.0115607,26.4489796 19.9865125,27.6734694 C21.3337089,29.3654794 21.9364162,31.3469388 21.6926782,32.5714286 C21.4489403,33.7959184 20.9614644,33.7959184 20.9614644,33.7959184 Z" id="Path-2" fill="#D8D8D8"></path>
                    <path d="M25.1050096,21.3061224 C25.1050096,21.3061224 23.3988439,22.2857143 24.3737958,23.5102041 C25.3487476,24.7346939 26.3236994,25.2244898 26.3236994,26.2040816 C26.3236994,27.1836735 25.5924855,30.3673469 27.5423892,31.1020408 C29.1216564,31.6970845 33.1219449,32.6894537 33.8795761,32.8163265 C35.3420039,33.0612245 35.8444639,31.6595864 35.3420039,29.3877551 C32.9046243,18.3673469 25.1050096,21.3061224 25.1050096,21.3061224 Z" id="Path-8" fill-opacity="0.9" fill="#FFFFFF"></path>
                    <path d="M37.7793834,6.36734694 C37.7793834,6.36734694 39.2418112,4.89795918 40.460501,4.89795918 C41.6791908,4.89795918 41.4354528,8.81632653 41.4354528,8.81632653 C41.4354528,8.81632653 41.4354528,10.2857143 39.973025,10.2857143 C38.5105973,10.2857143 39.973025,8.57142857 39.4855491,7.83673469 C38.9980732,7.10204082 37.7793834,6.36734694 37.7793834,6.36734694 Z" id="Path-5" fill="#CDC2B9"></path>
                    <g id="nails" transform="translate(51.184971, 84.244898)" fill="#EAEBD7">
                        <g>
                            <path d="M1.21527778,1.71428571 C1.88645716,1.71428571 2.43055556,1.43572688 2.43055556,0.962339952 C2.43055556,0.488953024 2.12951272,0 1.45833333,0 C0.78715395,0 0,1.24089879 0,1.71428571 C0,2.18767264 0.544098394,1.71428571 1.21527778,1.71428571 Z" id="Oval-3"></path>
                            <path d="M68.0831078,2.52457977 C68.9037397,2.52457977 69.5689933,2.18399382 69.5689933,1.6051971 C69.5689933,1.02640037 69.2009168,0.428571429 68.3802849,0.428571429 C67.559653,0.428571429 66.5972222,1.94578305 66.5972222,2.52457977 C66.5972222,3.1033765 67.2624758,2.52457977 68.0831078,2.52457977 Z" id="Oval-3-Copy-2"></path>
                            <path d="M65.3819444,1.71428571 C66.0531238,1.71428571 66.5972222,1.43572688 66.5972222,0.962339952 C66.5972222,0.488953024 66.2961794,0 65.625,0 C64.9538206,0 64.1666667,1.24089879 64.1666667,1.71428571 C64.1666667,2.18767264 64.7107651,1.71428571 65.3819444,1.71428571 Z" id="Oval-3-Copy-3"></path>
                            <path d="M2.91666667,2.52396814 C3.72208193,2.52396814 4.375,2.18257239 4.375,1.60239949 C4.375,1.02222659 4.01374859,0.422976211 3.20833333,0.422976211 C2.40291807,0.422976211 1.45833333,1.94379524 1.45833333,2.52396814 C1.45833333,3.10414104 2.11125141,2.52396814 2.91666667,2.52396814 Z" id="Oval-3-Copy" transform="translate(2.916667, 1.602399) rotate(10.000000) translate(-2.916667, -1.602399) "></path>
                        </g>
                    </g>
                    <g id="stripes" transform="translate(159.892100, 23.510204)" fill-opacity="0.9" fill="#FFFFFF">
                        <g id="Combined-Shape">
                            <path d="M9.7263307,0.0688671631 C11.2948404,0.937180582 12.9438711,1.85411741 14.6105912,2.78698293 C12.8637484,5.43259668 10.0785066,10.027452 8.31916089,14.8259952 C6.42248819,19.9990921 5.6034765,23.8472391 5.28157043,25.701638 C3.35578148,24.8024927 1.56482535,23.9553919 -0.0321734522,23.1935848 C0.101466834,21.5347676 0.685817329,18.1545912 2.93287432,12.3729808 C5.08909197,6.82509731 7.90851363,2.52266229 9.7263307,0.0688671631 Z"></path>
                            <path d="M21.4565657,6.6597515 C23.9633236,8.09638223 26.2994149,9.46080151 28.2212039,10.6262323 C26.3880532,13.054955 24.0864557,16.6006822 22.5278971,20.7579768 C20.63729,25.8009765 20.0447312,29.9368746 19.8635603,32.2726389 C17.5597603,31.2786384 15.2559196,30.2593092 13.0169429,29.2511513 C13.5820504,25.6971876 14.6241739,20.6746017 16.4112708,16.5787139 C18.0384039,12.8494507 19.9737684,9.25285365 21.4565657,6.6597515 Z"></path>
                            <path d="M34.5106169,14.4327998 C36.5023892,15.5256987 38.4486676,16.4540058 40.3779216,17.2668789 C39.287202,19.3545312 38.0587785,22.3836778 36.981154,26.6913196 C35.7312165,31.6877565 35.0532044,35.3794287 34.6854299,37.9106596 C32.576315,37.2307383 30.4223291,36.4898493 28.2679441,35.690237 C28.6074726,32.2879017 29.232912,27.9066666 30.3704944,24.2364236 C31.549498,20.4325409 33.2107625,16.9057113 34.5106169,14.4327998 Z"></path>
                            <path d="M49.3486194,20.4026247 C50.7587271,20.8179734 52.1831222,21.2127706 53.6326531,21.6057478 C54.3618488,21.8034375 55.1949406,21.9591904 56.1062804,22.0790994 C55.232918,24.8886306 54.2316869,28.5387795 53.6327759,32.130318 C52.9798229,36.0459339 52.743355,39.8664013 52.6655934,42.6004954 C50.6901339,42.2281528 48.2765449,41.70076 45.5763815,41.0259657 C45.8274263,37.4442872 46.2747063,32.7146637 47.0477638,28.5894056 C47.7211797,24.9958637 48.5952182,22.2879464 49.3486194,20.4026247 Z"></path>
                            <path d="M63.3853067,22.4110504 C66.285302,22.3765363 69.307739,22.2005358 72.0262474,21.9843329 C71.2874223,24.7256126 70.3827351,28.5458845 69.7998889,32.6252919 C69.2335028,36.5894932 69.5861609,40.7310875 70.0782275,43.8741829 C66.6860508,43.9321126 63.5543521,43.7261644 61.2278185,43.5370808 C61.1706863,40.3415133 60.872864,35.3208198 61.4256803,31.4509594 C61.9329187,27.900156 62.6986094,24.7723661 63.3853067,22.4110504 Z"></path>
                        </g>
                    </g>
                </g>
            </g>
            <circle id="Oval" fill-opacity="0.102355072" fill="#FF0007" cx="204" cy="46" r="35"></circle>
        </g>
    </g>
</svg>