<?xml version="1.0" encoding="UTF-8"?>
<svg width="545px" height="545px" viewBox="0 0 545 545" version="1.1" xmlns="http://www.w3.org/2000/svg" xmlns:xlink="http://www.w3.org/1999/xlink">
    <!-- Generator: Sketch 43.2 (39069) - http://www.bohemiancoding.com/sketch -->
    <title>Combined Shape Copy 2</title>
    <desc>Created with Sketch.</desc>
    <defs>
        <path d="M79.8134021,142.531249 L79.8134021,79.8134021 L142.531249,79.8134021 L166.025767,21.6624274 L226.431908,46.0680923 L272.5,2.27373675e-13 L318.568092,46.0680923 L378.974233,21.6624274 L402.468751,79.8134021 L465.186598,79.8134021 L465.186598,142.531249 L523.337573,166.025767 L498.931908,226.431908 L545,272.5 L498.931908,318.568092 L523.337573,378.974233 L465.186598,402.468751 L465.186598,465.186598 L402.468751,465.186598 L378.974233,523.337573 L318.568092,498.931908 L272.5,545 L226.431908,498.931908 L166.025767,523.337573 L142.531249,465.186598 L79.8134021,465.186598 L79.8134021,402.468751 L21.6624274,378.974233 L46.0680923,318.568092 L2.27373675e-13,272.5 L46.0680923,226.431908 L21.6624274,166.025767 L79.8134021,142.531249 Z" id="path-1"></path>
    </defs>
    <g id="Symbols" stroke="none" stroke-width="1" fill="none" fill-rule="evenodd">
        <g id="Combined-Shape-Copy-2">
            <g id="Combined-Shape">
                <use fill="#FFFFFF" fill-rule="evenodd" xlink:href="#path-1"></use>
                <path stroke="#000000" stroke-width="5" d="M82.3134021,82.3134021 L142.531249,82.3134021 L144.21752,82.3134021 L144.849208,80.7499186 L167.407211,24.9169036 L225.495391,48.3860519 L227.029615,49.0059187 L228.199675,47.8358592 L272.5,3.53553391 L316.800325,47.8358592 L317.970385,49.0059187 L319.504609,48.3860519 L377.592789,24.9169036 L400.150792,80.7499186 L400.78248,82.3134021 L402.468751,82.3134021 L462.686598,82.3134021 L462.686598,142.531249 L462.686598,144.21752 L464.250081,144.849208 L520.083096,167.407211 L496.613948,225.495391 L495.994081,227.029615 L497.164141,228.199675 L541.464466,272.5 L497.164141,316.800325 L495.994081,317.970385 L496.613948,319.504609 L520.083096,377.592789 L464.250081,400.150792 L462.686598,400.78248 L462.686598,402.468751 L462.686598,462.686598 L402.468751,462.686598 L400.78248,462.686598 L400.150792,464.250081 L377.592789,520.083096 L319.504609,496.613948 L317.970385,495.994081 L316.800325,497.164141 L272.5,541.464466 L228.199675,497.164141 L227.029615,495.994081 L225.495391,496.613948 L167.407211,520.083096 L144.849208,464.250081 L144.21752,462.686598 L142.531249,462.686598 L82.3134021,462.686598 L82.3134021,402.468751 L82.3134021,400.78248 L80.7499186,400.150792 L24.9169036,377.592789 L48.3860519,319.504609 L49.0059187,317.970385 L47.8358592,316.800325 L3.53553391,272.5 L47.8358592,228.199675 L49.0059187,227.029615 L48.3860519,225.495391 L24.9169036,167.407211 L80.7499186,144.849208 L82.3134021,144.21752 L82.3134021,142.531249 L82.3134021,82.3134021 Z"></path>
            </g>
            <text id="WEB-SITES" font-family="StempelSchneidlerStd-Bold, Stempel Schneidler Std" font-size="100" font-weight="bold" letter-spacing="4" fill="#000000">
                <tspan x="150.35" y="243">WEB</tspan>
                <tspan x="120.45" y="359">SITES</tspan>
            </text>
        </g>
    </g>
</svg>